<?xml version="1.0" encoding="iso-8859-1"?>
<!-- Generator: Adobe Illustrator 19.0.0, SVG Export Plug-In . SVG Version: 6.00 Build 0)  -->
<svg version="1.1" id="Layer_1" xmlns="http://www.w3.org/2000/svg" xmlns:xlink="http://www.w3.org/1999/xlink" x="0px" y="0px"
	 viewBox="0 0 297.001 297.001" style="enable-background:new 0 0 297.001 297.001;" xml:space="preserve">
<g>
	<g>
		<path d="M289.159,251.301l-82.514-82.513c-5.057-5.058-11.78-7.843-18.932-7.843c-3.63,0-7.149,0.721-10.396,2.089l-11.07-11.07
			c13.352-16.546,20.619-36.985,20.619-58.547c0-24.963-9.721-48.431-27.372-66.083c-36.439-36.437-95.727-36.437-132.166,0
			c-36.437,36.439-36.437,95.727,0,132.166c17.652,17.651,41.12,27.371,66.083,27.372c21.562,0,42.001-7.268,58.547-20.619
			l11.07,11.07c-1.368,3.247-2.089,6.766-2.089,10.396c0,7.152,2.785,13.875,7.842,18.932l82.514,82.514
			c5.219,5.219,12.076,7.829,18.932,7.829s13.712-2.61,18.932-7.829c5.057-5.057,7.842-11.781,7.842-18.932
			S294.216,256.358,289.159,251.301z M145.206,145.211c-13.835,13.835-32.229,21.455-51.794,21.455
			c-19.565-0.001-37.96-7.62-51.795-21.455c-28.559-28.559-28.559-75.029,0-103.589c28.56-28.559,75.03-28.559,103.589,0
			c13.836,13.835,21.455,32.23,21.455,51.795S159.042,131.376,145.206,145.211z M187.713,197.006l-4.644-4.644
			c-1.24-1.24-1.923-2.889-1.923-4.643c0-1.752,0.681-3.398,1.919-4.639c0.002-0.002,0.003-0.003,0.005-0.005
			s0.003-0.004,0.005-0.005c1.24-1.237,2.886-1.918,4.638-1.918c1.755,0,3.403,0.683,4.644,1.924l4.643,4.643L187.713,197.006z
			 M274.871,274.876c-2.56,2.561-6.729,2.559-9.287,0l-63.582-63.582l9.287-9.287l63.582,63.582
			C277.431,268.15,277.431,272.316,274.871,274.876z"/>
	</g>
</g>
<g>
</g>
<g>
</g>
<g>
</g>
<g>
</g>
<g>
</g>
<g>
</g>
<g>
</g>
<g>
</g>
<g>
</g>
<g>
</g>
<g>
</g>
<g>
</g>
<g>
</g>
<g>
</g>
<g>
</g>
</svg>
