<?xml version="1.0" encoding="UTF-8" standalone="no"?> <svg xmlns="http://www.w3.org/2000/svg" xmlns:xlink="http://www.w3.org/1999/xlink" viewBox="0 0 107.3 107.3"><defs><style>.cls-1{fill:url(#linear-gradient);}.cls-2{fill:url(#linear-gradient-2);}</style><linearGradient id="linear-gradient" x1="20.63" y1="53.65" x2="87.72" y2="53.65" gradientUnits="userSpaceOnUse"><stop offset="0" stop-color="#ffbb36"/><stop offset="0.35" stop-color="#ff5176"/><stop offset="0.52" stop-color="#f63395"/><stop offset="0.74" stop-color="#a436d2"/><stop offset="1" stop-color="#5f4eed"/></linearGradient><linearGradient id="linear-gradient-2" x1="0" y1="53.65" x2="107.3" y2="53.65" xlink:href="#linear-gradient"/></defs><title>Asset 5</title><g id="Layer_2" data-name="Layer 2"><g id="图层_1" data-name="图层 1"><path class="cls-1" d="M71.82,32.46a3.95,3.95,0,1,0,3.94,3.94A3.93,3.93,0,0,0,71.82,32.46ZM54.29,37.52A16.57,16.57,0,1,0,70.85,54.08,16.58,16.58,0,0,0,54.29,37.52Zm0,27.18A10.62,10.62,0,1,1,64.9,54.08,10.63,10.63,0,0,1,54.29,64.7ZM87.72,40.31a20.2,20.2,0,0,0-20.21-20.2H40.84a20.2,20.2,0,0,0-20.21,20.2V67a20.2,20.2,0,0,0,20.21,20.2H67.51A20.2,20.2,0,0,0,87.72,67ZM81.39,67A13.89,13.89,0,0,1,67.51,80.87H40.84A13.88,13.88,0,0,1,27,67V40.31A13.87,13.87,0,0,1,40.84,26.44H67.51A13.88,13.88,0,0,1,81.39,40.31Z"/><path class="cls-2" d="M88.49,6.89a11.94,11.94,0,0,1,11.92,11.92V88.49a11.94,11.94,0,0,1-11.92,11.92H18.81A11.94,11.94,0,0,1,6.89,88.49V18.81A11.94,11.94,0,0,1,18.81,6.89H88.49m0-6.89H18.81A18.81,18.81,0,0,0,0,18.81V88.49A18.81,18.81,0,0,0,18.81,107.3H88.49A18.81,18.81,0,0,0,107.3,88.49V18.81A18.81,18.81,0,0,0,88.49,0Z"/></g></g></svg>